<?xml version="1.0" standalone="no"?><!DOCTYPE svg PUBLIC "-//W3C//DTD SVG 1.1//EN" "http://www.w3.org/Graphics/SVG/1.1/DTD/svg11.dtd"><svg xmlns:xlink="http://www.w3.org/1999/xlink" version="1.1" style="font-family:'lucida grande', 'lucida sans unicode', arial, helvetica, sans-serif;font-size:12px;" xmlns="http://www.w3.org/2000/svg" width="600" height="400"><desc>Created with Highcharts 4.2.7</desc><defs><clipPath id="highcharts-13"><rect x="1" y="1" width="542" height="313"></rect></clipPath></defs><rect x="46" y="10" width="544" height="315" fill="#ffffff"></rect><path fill="rgb(255, 255, 255)" fill-opacity=" .5" d="M 46 325.5 L 590 325.5 590 280.5 46 280.5"></path><path fill="rgb(255, 255, 255)" fill-opacity=" .5" d="M 46 235.5 L 590 235.5 590 190.5 46 190.5"></path><path fill="rgb(255, 255, 255)" fill-opacity=" .5" d="M 46 145.5 L 590 145.5 590 100.5 46 100.5"></path><path fill="rgb(255, 255, 255)" fill-opacity=" .5" d="M 46 55.5 L 590 55.5 590 10.5 46 10.5"></path><g class="highcharts-grid"></g><g class="highcharts-grid"><path fill="none" d="M 46 325.5 L 590 325.5" stroke="#C0C0C0" stroke-width="1" opacity="1"></path><path fill="none" d="M 46 280.5 L 590 280.5" stroke="#C0C0C0" stroke-width="1" opacity="1"></path><path fill="none" d="M 46 235.5 L 590 235.5" stroke="#C0C0C0" stroke-width="1" opacity="1"></path><path fill="none" d="M 46 190.5 L 590 190.5" stroke="#C0C0C0" stroke-width="1" opacity="1"></path><path fill="none" d="M 46 145.5 L 590 145.5" stroke="#C0C0C0" stroke-width="1" opacity="1"></path><path fill="none" d="M 46 100.5 L 590 100.5" stroke="#C0C0C0" stroke-width="1" opacity="1"></path><path fill="none" d="M 46 55.5 L 590 55.5" stroke="#C0C0C0" stroke-width="1" opacity="1"></path><path fill="none" d="M 46 9.5 L 590 9.5" stroke="#C0C0C0" stroke-width="1" opacity="1"></path></g><rect x="46" y="10" width="544" height="315" stroke="#026FC1" stroke-width="2" fill="none"></rect><g class="highcharts-axis"><path fill="none" d="M 154.5 325 L 154.5 335" stroke="#C0D0E0" stroke-width="1" opacity="1"></path><path fill="none" d="M 263.5 325 L 263.5 335" stroke="#C0D0E0" stroke-width="1" opacity="1"></path><path fill="none" d="M 371.5 325 L 371.5 335" stroke="#C0D0E0" stroke-width="1" opacity="1"></path><path fill="none" d="M 480.5 325 L 480.5 335" stroke="#C0D0E0" stroke-width="1" opacity="1"></path><path fill="none" d="M 590.5 325 L 590.5 335" stroke="#C0D0E0" stroke-width="1" opacity="1"></path><path fill="none" d="M 45.5 325 L 45.5 335" stroke="#C0D0E0" stroke-width="1" opacity="1"></path><path fill="none" d="M 46 325.5 L 590 325.5" stroke="#C0D0E0" stroke-width="1"></path></g><g class="highcharts-axis"><path fill="none" d="M 46 325.5 L 36 325.5" stroke="#C0D0E0" stroke-width="1" opacity="1"></path><path fill="none" d="M 46 280.5 L 36 280.5" stroke="#C0D0E0" stroke-width="1" opacity="1"></path><path fill="none" d="M 46 235.5 L 36 235.5" stroke="#C0D0E0" stroke-width="1" opacity="1"></path><path fill="none" d="M 46 190.5 L 36 190.5" stroke="#C0D0E0" stroke-width="1" opacity="1"></path><path fill="none" d="M 46 145.5 L 36 145.5" stroke="#C0D0E0" stroke-width="1" opacity="1"></path><path fill="none" d="M 46 100.5 L 36 100.5" stroke="#C0D0E0" stroke-width="1" opacity="1"></path><path fill="none" d="M 46 55.5 L 36 55.5" stroke="#C0D0E0" stroke-width="1" opacity="1"></path><path fill="none" d="M 46 9.5 L 36 9.5" stroke="#C0D0E0" stroke-width="1" opacity="1"></path></g><g class="highcharts-series-group"><g class="highcharts-series highcharts-series-0" transform="translate(46,10) scale(1 1)" clip-path="url(#highcharts-13)"><rect x="27.5" y="61.5" width="53" height="254" stroke="#FFFFFF" stroke-width="1" fill="#50B432" rx="0" ry="0"></rect><rect x="136.5" y="59.5" width="53" height="256" stroke="#FFFFFF" stroke-width="1" fill="#ff0000" rx="0" ry="0"></rect><rect x="245.5" y="59.5" width="53" height="256" stroke="#FFFFFF" stroke-width="1" fill="#f2833a" rx="0" ry="0"></rect><rect x="354.5" y="57.5" width="53" height="258" stroke="#FFFFFF" stroke-width="1" fill="#24CBE5" rx="0" ry="0"></rect><rect x="462.5" y="48.5" width="53" height="267" stroke="#FFFFFF" stroke-width="1" fill="#801277" rx="0" ry="0"></rect></g><g class="highcharts-markers highcharts-series-0" transform="translate(46,10) scale(1 1)" clip-path="none"></g><g class="highcharts-series highcharts-series-1" transform="translate(46,10) scale(1 1)" clip-path="url(#highcharts-13)"></g><g class="highcharts-markers highcharts-series-1" transform="translate(46,10) scale(1 1)" clip-path="none"></g></g><g class="highcharts-data-labels highcharts-series-0" transform="translate(46,10) scale(1 1)" opacity="1"><g style="cursor:pointer;" transform="translate(36,41)"><text x="5" style="font-size:10px;font-weight:bold;font-family:'arial', sans-serif;color:#000000;text-shadow:0 0 6px #ffffff, 0 0 3px #ffffff;fill:#000000;text-rendering:geometricprecision;" y="15"><tspan>1.411</tspan></text></g><g style="cursor:pointer;" transform="translate(145,39)"><text x="5" style="font-size:10px;font-weight:bold;font-family:'arial', sans-serif;color:#000000;text-shadow:0 0 6px #ffffff, 0 0 3px #ffffff;fill:#000000;text-rendering:geometricprecision;" y="15"><tspan>1.421</tspan></text></g><g style="cursor:pointer;" transform="translate(254,39)"><text x="5" style="font-size:10px;font-weight:bold;font-family:'arial', sans-serif;color:#000000;text-shadow:0 0 6px #ffffff, 0 0 3px #ffffff;fill:#000000;text-rendering:geometricprecision;" y="15"><tspan>1.422</tspan></text></g><g style="cursor:pointer;" transform="translate(363,37)"><text x="5" style="font-size:10px;font-weight:bold;font-family:'arial', sans-serif;color:#000000;text-shadow:0 0 6px #ffffff, 0 0 3px #ffffff;fill:#000000;text-rendering:geometricprecision;" y="15"><tspan>1.436</tspan></text></g><g style="cursor:pointer;" transform="translate(471,28)"><text x="5" style="font-size:10px;font-weight:bold;font-family:'arial', sans-serif;color:#000000;text-shadow:0 0 6px #ffffff, 0 0 3px #ffffff;fill:#000000;text-rendering:geometricprecision;" y="15"><tspan>1.486</tspan></text></g></g><g class="highcharts-data-labels highcharts-series-1" transform="translate(46,10) scale(1 1)" opacity="1"></g><g class="highcharts-legend" transform="translate(229,356)"><g><g><g class="highcharts-legend-item" transform="translate(8,3)"><text x="21" style="color:#333;font-size:9pt;font-weight:normal;cursor:pointer;font-family:'lucida grande','lucida sans unicode',arial,helvetica,sans-serif;text-transform:none;fill:#333;" text-anchor="start" y="15"><tspan>Density of Skittles</tspan></text><rect x="0" y="4" width="16" height="12" fill="#CCC"></rect></g></g></g></g><g class="highcharts-axis-labels highcharts-xaxis-labels"><text x="100.4" style="color:#000000;cursor:default;font-size:10px;font-family:'arial', sans-serif;text-transform:none;font-weight:normal;fill:#000000;" text-anchor="middle" transform="translate(0,0)" y="343" opacity="1"><tspan>Green skittles</tspan></text><text x="209.20000000000002" style="color:#000000;cursor:default;font-size:10px;font-family:'arial', sans-serif;text-transform:none;font-weight:normal;fill:#000000;" text-anchor="middle" transform="translate(0,0)" y="343" opacity="1"><tspan>Red skittles</tspan></text><text x="318" style="color:#000000;cursor:default;font-size:10px;font-family:'arial', sans-serif;text-transform:none;font-weight:normal;fill:#000000;" text-anchor="middle" transform="translate(0,0)" y="343" opacity="1"><tspan>Orange skittles</tspan></text><text x="426.8" style="color:#000000;cursor:default;font-size:10px;font-family:'arial', sans-serif;text-transform:none;font-weight:normal;fill:#000000;" text-anchor="middle" transform="translate(0,0)" y="343" opacity="1"><tspan>Yellow skittles</tspan></text><text x="535.6" style="color:#000000;cursor:default;font-size:10px;font-family:'arial', sans-serif;text-transform:none;font-weight:normal;fill:#000000;" text-anchor="middle" transform="translate(0,0)" y="343" opacity="1"><tspan>Grape skittles</tspan></text></g><g class="highcharts-axis-labels highcharts-yaxis-labels"><text x="31" style="color:#000000;cursor:default;font-size:10px;font-family:'arial', sans-serif;text-transform:none;font-weight:normal;fill:#000000;width:188px;text-overflow:clip;" text-anchor="end" transform="translate(0,0)" y="330" opacity="1"><tspan>0</tspan></text><text x="31" style="color:#000000;cursor:default;font-size:10px;font-family:'arial', sans-serif;text-transform:none;font-weight:normal;fill:#000000;width:188px;text-overflow:clip;" text-anchor="end" transform="translate(0,0)" y="285" opacity="1"><tspan>0.25</tspan></text><text x="31" style="color:#000000;cursor:default;font-size:10px;font-family:'arial', sans-serif;text-transform:none;font-weight:normal;fill:#000000;width:188px;text-overflow:clip;" text-anchor="end" transform="translate(0,0)" y="240" opacity="1"><tspan>0.5</tspan></text><text x="31" style="color:#000000;cursor:default;font-size:10px;font-family:'arial', sans-serif;text-transform:none;font-weight:normal;fill:#000000;width:188px;text-overflow:clip;" text-anchor="end" transform="translate(0,0)" y="195" opacity="1"><tspan>0.75</tspan></text><text x="31" style="color:#000000;cursor:default;font-size:10px;font-family:'arial', sans-serif;text-transform:none;font-weight:normal;fill:#000000;width:188px;text-overflow:clip;" text-anchor="end" transform="translate(0,0)" y="150" opacity="1"><tspan>1</tspan></text><text x="31" style="color:#000000;cursor:default;font-size:10px;font-family:'arial', sans-serif;text-transform:none;font-weight:normal;fill:#000000;width:188px;text-overflow:clip;" text-anchor="end" transform="translate(0,0)" y="105" opacity="1"><tspan>1.25</tspan></text><text x="31" style="color:#000000;cursor:default;font-size:10px;font-family:'arial', sans-serif;text-transform:none;font-weight:normal;fill:#000000;width:188px;text-overflow:clip;" text-anchor="end" transform="translate(0,0)" y="60" opacity="1"><tspan>1.5</tspan></text><text x="31" style="color:#000000;cursor:default;font-size:10px;font-family:'arial', sans-serif;text-transform:none;font-weight:normal;fill:#000000;width:188px;text-overflow:clip;" text-anchor="end" transform="translate(0,0)" y="15" opacity="1"><tspan>1.75</tspan></text></g><g class="highcharts-tooltip" display="none" style="cursor:default;padding:0;pointer-events:none;white-space:nowrap;" transform="translate(0,0)"><path fill="none" d="M 3.5 0.5 L 13.5 0.5 C 16.5 0.5 16.5 0.5 16.5 3.5 L 16.5 13.5 C 16.5 16.5 16.5 16.5 13.5 16.5 L 3.5 16.5 C 0.5 16.5 0.5 16.5 0.5 13.5 L 0.5 3.5 C 0.5 0.5 0.5 0.5 3.5 0.5"  stroke="black" stroke-opacity="0.049999999999999996" stroke-width="5" transform="translate(1, 1)"></path><path fill="none" d="M 3.5 0.5 L 13.5 0.5 C 16.5 0.5 16.5 0.5 16.5 3.5 L 16.5 13.5 C 16.5 16.5 16.5 16.5 13.5 16.5 L 3.5 16.5 C 0.5 16.5 0.5 16.5 0.5 13.5 L 0.5 3.5 C 0.5 0.5 0.5 0.5 3.5 0.5"  stroke="black" stroke-opacity="0.09999999999999999" stroke-width="3" transform="translate(1, 1)"></path><path fill="none" d="M 3.5 0.5 L 13.5 0.5 C 16.5 0.5 16.5 0.5 16.5 3.5 L 16.5 13.5 C 16.5 16.5 16.5 16.5 13.5 16.5 L 3.5 16.5 C 0.5 16.5 0.5 16.5 0.5 13.5 L 0.5 3.5 C 0.5 0.5 0.5 0.5 3.5 0.5"  stroke="black" stroke-opacity="0.15" stroke-width="1" transform="translate(1, 1)"></path><path fill="rgb(255, 255, 255)" fill-opacity=" 0.85" d="M 3.5 0.5 L 13.5 0.5 C 16.5 0.5 16.5 0.5 16.5 3.5 L 16.5 13.5 C 16.5 16.5 16.5 16.5 13.5 16.5 L 3.5 16.5 C 0.5 16.5 0.5 16.5 0.5 13.5 L 0.5 3.5 C 0.5 0.5 0.5 0.5 3.5 0.5"></path><text x="8" style="font-size:12px;color:#000000;fill:#000000;" y="20"></text></g><text x="590" text-anchor="end" style="cursor:pointer;color:#909090;font-size:9px;fill:#909090;" y="395">meta-chart.com</text></svg>